<svg width="116" height="15" viewBox="0 0 116 15" fill="none" xmlns="http://www.w3.org/2000/svg">
<path d="M14.3463 1.436V14H11.8263V5.828L8.46025 14H6.55225L3.16825 5.828V14H0.64825V1.436H3.51025L7.50625 10.778L11.5023 1.436H14.3463ZM21.2657 14.162C20.3057 14.162 19.4417 13.952 18.6737 13.532C17.9057 13.1 17.2997 12.494 16.8557 11.714C16.4237 10.934 16.2077 10.034 16.2077 9.014C16.2077 7.994 16.4297 7.094 16.8737 6.314C17.3297 5.534 17.9477 4.934 18.7277 4.514C19.5077 4.082 20.3777 3.866 21.3377 3.866C22.2977 3.866 23.1677 4.082 23.9477 4.514C24.7277 4.934 25.3397 5.534 25.7837 6.314C26.2397 7.094 26.4677 7.994 26.4677 9.014C26.4677 10.034 26.2337 10.934 25.7657 11.714C25.3097 12.494 24.6857 13.1 23.8937 13.532C23.1137 13.952 22.2377 14.162 21.2657 14.162ZM21.2657 11.966C21.7217 11.966 22.1477 11.858 22.5437 11.642C22.9517 11.414 23.2757 11.078 23.5157 10.634C23.7557 10.19 23.8757 9.65 23.8757 9.014C23.8757 8.066 23.6237 7.34 23.1197 6.836C22.6277 6.32 22.0217 6.062 21.3017 6.062C20.5817 6.062 19.9757 6.32 19.4837 6.836C19.0037 7.34 18.7637 8.066 18.7637 9.014C18.7637 9.962 18.9977 10.694 19.4657 11.21C19.9457 11.714 20.5457 11.966 21.2657 11.966ZM27.6682 8.978C27.6682 7.97 27.8662 7.076 28.2622 6.296C28.6702 5.516 29.2222 4.916 29.9182 4.496C30.6142 4.076 31.3882 3.866 32.2402 3.866C32.8882 3.866 33.5062 4.01 34.0942 4.298C34.6822 4.574 35.1502 4.946 35.4982 5.414V0.68H38.0542V14H35.4982V12.524C35.1862 13.016 34.7482 13.412 34.1842 13.712C33.6202 14.012 32.9662 14.162 32.2222 14.162C31.3822 14.162 30.6142 13.946 29.9182 13.514C29.2222 13.082 28.6702 12.476 28.2622 11.696C27.8662 10.904 27.6682 9.998 27.6682 8.978ZM35.5162 9.014C35.5162 8.402 35.3962 7.88 35.1562 7.448C34.9162 7.004 34.5922 6.668 34.1842 6.44C33.7762 6.2 33.3382 6.08 32.8702 6.08C32.4022 6.08 31.9702 6.194 31.5742 6.422C31.1782 6.65 30.8542 6.986 30.6022 7.43C30.3622 7.862 30.2422 8.378 30.2422 8.978C30.2422 9.578 30.3622 10.106 30.6022 10.562C30.8542 11.006 31.1782 11.348 31.5742 11.588C31.9822 11.828 32.4142 11.948 32.8702 11.948C33.3382 11.948 33.7762 11.834 34.1842 11.606C34.5922 11.366 34.9162 11.03 35.1562 10.598C35.3962 10.154 35.5162 9.626 35.5162 9.014ZM49.7854 8.798C49.7854 9.158 49.7614 9.482 49.7134 9.77H42.4234C42.4834 10.49 42.7354 11.054 43.1794 11.462C43.6234 11.87 44.1694 12.074 44.8174 12.074C45.7534 12.074 46.4194 11.672 46.8154 10.868H49.5334C49.2454 11.828 48.6934 12.62 47.8774 13.244C47.0614 13.856 46.0594 14.162 44.8714 14.162C43.9114 14.162 43.0474 13.952 42.2794 13.532C41.5234 13.1 40.9294 12.494 40.4974 11.714C40.0774 10.934 39.8674 10.034 39.8674 9.014C39.8674 7.982 40.0774 7.076 40.4974 6.296C40.9174 5.516 41.5054 4.916 42.2614 4.496C43.0174 4.076 43.8874 3.866 44.8714 3.866C45.8194 3.866 46.6654 4.07 47.4094 4.478C48.1654 4.886 48.7474 5.468 49.1554 6.224C49.5754 6.968 49.7854 7.826 49.7854 8.798ZM47.1754 8.078C47.1634 7.43 46.9294 6.914 46.4734 6.53C46.0174 6.134 45.4594 5.936 44.7994 5.936C44.1754 5.936 43.6474 6.128 43.2154 6.512C42.7954 6.884 42.5374 7.406 42.4414 8.078H47.1754ZM54.1448 5.576C54.4688 5.048 54.8888 4.634 55.4048 4.334C55.9328 4.034 56.5328 3.884 57.2048 3.884V6.53H56.5388C55.7468 6.53 55.1468 6.716 54.7388 7.088C54.3428 7.46 54.1448 8.108 54.1448 9.032V14H51.6248V4.028H54.1448V5.576ZM64.4282 3.884C65.6162 3.884 66.5762 4.262 67.3082 5.018C68.0402 5.762 68.4062 6.806 68.4062 8.15V14H65.8862V8.492C65.8862 7.7 65.6882 7.094 65.2922 6.674C64.8962 6.242 64.3562 6.026 63.6722 6.026C62.9762 6.026 62.4242 6.242 62.0162 6.674C61.6202 7.094 61.4222 7.7 61.4222 8.492V14H58.9022V4.028H61.4222V5.27C61.7582 4.838 62.1842 4.502 62.7002 4.262C63.2282 4.01 63.8042 3.884 64.4282 3.884Z" fill="white"/>
<path d="M77.9305 7.556C78.6385 7.688 79.2205 8.042 79.6765 8.618C80.1325 9.194 80.3605 9.854 80.3605 10.598C80.3605 11.27 80.1925 11.864 79.8565 12.38C79.5325 12.884 79.0585 13.28 78.4345 13.568C77.8105 13.856 77.0725 14 76.2205 14H70.8025V1.436H75.9865C76.8385 1.436 77.5705 1.574 78.1825 1.85C78.8065 2.126 79.2745 2.51 79.5865 3.002C79.9105 3.494 80.0725 4.052 80.0725 4.676C80.0725 5.408 79.8745 6.02 79.4785 6.512C79.0945 7.004 78.5785 7.352 77.9305 7.556ZM73.3225 6.62H75.6265C76.2265 6.62 76.6885 6.488 77.0125 6.224C77.3365 5.948 77.4985 5.558 77.4985 5.054C77.4985 4.55 77.3365 4.16 77.0125 3.884C76.6885 3.608 76.2265 3.47 75.6265 3.47H73.3225V6.62ZM75.8605 11.948C76.4725 11.948 76.9465 11.804 77.2825 11.516C77.6305 11.228 77.8045 10.82 77.8045 10.292C77.8045 9.752 77.6245 9.332 77.2645 9.032C76.9045 8.72 76.4185 8.564 75.8065 8.564H73.3225V11.948H75.8605ZM81.721 8.978C81.721 7.97 81.919 7.076 82.315 6.296C82.723 5.516 83.269 4.916 83.953 4.496C84.649 4.076 85.423 3.866 86.275 3.866C87.019 3.866 87.667 4.016 88.219 4.316C88.783 4.616 89.233 4.994 89.569 5.45V4.028H92.107V14H89.569V12.542C89.245 13.01 88.795 13.4 88.219 13.712C87.655 14.012 87.001 14.162 86.257 14.162C85.417 14.162 84.649 13.946 83.953 13.514C83.269 13.082 82.723 12.476 82.315 11.696C81.919 10.904 81.721 9.998 81.721 8.978ZM89.569 9.014C89.569 8.402 89.449 7.88 89.209 7.448C88.969 7.004 88.645 6.668 88.237 6.44C87.829 6.2 87.391 6.08 86.923 6.08C86.455 6.08 86.023 6.194 85.627 6.422C85.231 6.65 84.907 6.986 84.655 7.43C84.415 7.862 84.295 8.378 84.295 8.978C84.295 9.578 84.415 10.106 84.655 10.562C84.907 11.006 85.231 11.348 85.627 11.588C86.035 11.828 86.467 11.948 86.923 11.948C87.391 11.948 87.829 11.834 88.237 11.606C88.645 11.366 88.969 11.03 89.209 10.598C89.449 10.154 89.569 9.626 89.569 9.014ZM100.094 3.884C101.282 3.884 102.242 4.262 102.974 5.018C103.706 5.762 104.072 6.806 104.072 8.15V14H101.552V8.492C101.552 7.7 101.354 7.094 100.958 6.674C100.562 6.242 100.022 6.026 99.3382 6.026C98.6422 6.026 98.0902 6.242 97.6822 6.674C97.2862 7.094 97.0882 7.7 97.0882 8.492V14H94.5682V4.028H97.0882V5.27C97.4242 4.838 97.8502 4.502 98.3662 4.262C98.8942 4.01 99.4702 3.884 100.094 3.884ZM112.373 14L108.989 9.752V14H106.469V0.68H108.989V8.258L112.337 4.028H115.613L111.221 9.032L115.649 14H112.373Z" fill="#5CE1E6"/>
</svg>
