<svg version="1.1" id="Layer_1" xmlns="http://www.w3.org/2000/svg" xmlns:xlink="http://www.w3.org/1999/xlink" x="0px" y="0px"
	 viewBox="0 0 297 297" style="fill:white" xml:space="preserve">
<g>
	<g>
		<g>
			<rect x="34.425" y="118.329" width="46.358" height="23.051"/>
			<rect x="125.321" y="118.329" width="46.358" height="23.051"/>
			<path d="M275.182,19.453H21.817C9.787,19.452,0,29.239,0,41.269v25.529h297V41.269C297,29.239,287.213,19.453,275.182,19.453z
				 M42.228,48.446c-1.322,1.322-3.163,2.085-5.035,2.085c-1.871,0-3.712-0.763-5.034-2.085c-1.323-1.322-2.086-3.164-2.086-5.035
				c0-1.882,0.763-3.713,2.086-5.035c1.332-1.332,3.163-2.085,5.034-2.085c1.872,0,3.713,0.753,5.035,2.085
				c1.322,1.322,2.085,3.164,2.085,5.035C44.313,45.282,43.55,47.113,42.228,48.446z M73.3,48.446
				c-1.322,1.322-3.163,2.085-5.034,2.085c-1.872,0-3.713-0.763-5.035-2.085c-1.322-1.333-2.085-3.164-2.085-5.035
				c0.001-1.872,0.763-3.713,2.085-5.035c1.332-1.332,3.163-2.085,5.035-2.085c1.871,0,3.712,0.753,5.034,2.085
				c1.333,1.322,2.086,3.154,2.086,5.035C75.386,45.282,74.633,47.113,73.3,48.446z M104.374,48.446
				c-1.323,1.322-3.154,2.085-5.035,2.085c-1.871,0-3.703-0.763-5.025-2.085c-1.332-1.333-2.095-3.164-2.095-5.035
				c0.001-1.872,0.763-3.713,2.095-5.035c1.322-1.332,3.154-2.085,5.025-2.085c1.871,0,3.712,0.753,5.035,2.085
				c1.332,1.322,2.085,3.154,2.085,5.035C106.459,45.282,105.706,47.113,104.374,48.446z"/>
			<rect x="216.217" y="118.329" width="46.358" height="23.051"/>
			<path d="M0,255.731c0,12.03,9.787,21.816,21.817,21.816h253.365c12.031,0,21.818-9.787,21.818-21.816V81.038H0V255.731z
				 M269.695,248.847h-60.597c-3.932,0-7.12-3.187-7.12-7.12s3.187-7.12,7.12-7.12h60.597c3.932,0,7.12,3.187,7.12,7.12
				S273.627,248.847,269.695,248.847z M269.695,220.879h-60.597c-3.932,0-7.12-3.187-7.12-7.12c0-3.933,3.187-7.12,7.12-7.12h60.597
				c3.932,0,7.12,3.187,7.12,7.12C276.815,217.692,273.627,220.879,269.695,220.879z M269.695,192.911h-60.597
				c-3.932,0-7.12-3.187-7.12-7.12c0-3.933,3.187-7.12,7.12-7.12h60.597c3.932,0,7.12,3.187,7.12,7.12
				C276.815,189.724,273.627,192.911,269.695,192.911z M201.977,111.209c0-3.932,3.187-7.12,7.12-7.12h60.597
				c3.932,0,7.12,3.187,7.12,7.12V148.5c0,3.932-3.187,7.12-7.12,7.12h-60.597c-3.932,0-7.12-3.187-7.12-7.12V111.209z
				 M111.081,111.209c0-3.932,3.187-7.12,7.12-7.12h60.597c3.932,0,7.12,3.187,7.12,7.12V148.5c0,3.932-3.187,7.12-7.12,7.12
				h-60.597c-3.932,0-7.12-3.187-7.12-7.12V111.209z M118.201,178.671h60.597c3.932,0,7.12,3.187,7.12,7.12
				c0,3.933-3.187,7.12-7.12,7.12h-60.597c-3.932,0-7.12-3.187-7.12-7.12C111.081,181.858,114.268,178.671,118.201,178.671z
				 M118.201,206.639h60.597c3.932,0,7.12,3.187,7.12,7.12c0,3.933-3.187,7.12-7.12,7.12h-60.597c-3.932,0-7.12-3.187-7.12-7.12
				C111.081,209.826,114.268,206.639,118.201,206.639z M118.201,234.607h60.597c3.932,0,7.12,3.187,7.12,7.12s-3.187,7.12-7.12,7.12
				h-60.597c-3.932,0-7.12-3.187-7.12-7.12S114.268,234.607,118.201,234.607z M20.185,111.209c0-3.932,3.187-7.12,7.12-7.12h60.597
				c3.932,0,7.12,3.187,7.12,7.12V148.5h0.001c0,3.932-3.187,7.12-7.12,7.12H27.305c-3.932,0-7.12-3.187-7.12-7.12V111.209z
				 M27.305,178.671h60.597c3.932,0,7.12,3.187,7.12,7.12c0,3.933-3.187,7.12-7.119,7.12H27.305c-3.932,0-7.12-3.187-7.12-7.12
				C20.185,181.858,23.372,178.671,27.305,178.671z M27.305,206.639h60.597c3.932,0,7.12,3.187,7.12,7.12
				c0,3.933-3.187,7.12-7.119,7.12H27.305c-3.932,0-7.12-3.187-7.12-7.12C20.185,209.826,23.372,206.639,27.305,206.639z
				 M27.305,234.607h60.597c3.932,0,7.12,3.187,7.12,7.12s-3.187,7.12-7.119,7.12H27.305c-3.932,0-7.12-3.187-7.12-7.12
				S23.372,234.607,27.305,234.607z"/>
		</g>
	</g>
</g>
<g>
</g>
<g>
</g>
<g>
</g>
<g>
</g>
<g>
</g>
<g>
</g>
<g>
</g>
<g>
</g>
<g>
</g>
<g>
</g>
<g>
</g>
<g>
</g>
<g>
</g>
<g>
</g>
<g>
</g>
</svg>